<?xml version="1.0" encoding="UTF-8"?>
<svg id="CETI_Logo" xmlns="http://www.w3.org/2000/svg" version="1.1" viewBox="0 0 192.04 88.53">
  <!-- Generator: Adobe Illustrator 30.4.0, SVG Export Plug-In . SVG Version: 2.1.4 Build 226)  -->
  <g>
    <path d="M112.79,41.53c.11-.98.16-1.98.16-2.99,0-3.27-1.03-4.9-3.1-4.9-2.4,0-3.56,3.36-3.48,10.07v.44c0,1.12.14,2.22.41,3.29.27,1.07.87,2.08,1.8,3.02s2.1,1.42,3.51,1.42,2.55-.46,3.62-1.39,1.61-2.02,1.61-3.29h.38c-.07,2.94-.79,5.29-2.15,7.05s-3.44,2.64-6.23,2.64c-2.61,0-4.86-1.03-6.75-3.08-1.89-2.05-2.83-4.58-2.83-7.59,0-1.63.16-3.18.49-4.63.33-1.45.86-2.85,1.61-4.19.74-1.34,1.81-2.4,3.18-3.18s2.99-1.17,4.85-1.17c2.43,0,4.35.72,5.74,2.15s2.1,2.95,2.1,4.55c-1.49.36-3.12.96-4.9,1.8h0l-.02-.02Z"/>
    <path d="M139.68,47.62c-.29,2.5-1.16,4.66-2.61,6.48-1.45,1.81-3.37,2.72-5.77,2.72-6.68,0-10.02-4.03-10.02-12.09,0-3.23.93-5.99,2.78-8.28,1.85-2.29,4.12-3.43,6.81-3.43,1.67,0,3.1.31,4.3.93s2.11,1.47,2.72,2.56c.62,1.09,1.05,2.21,1.31,3.38.25,1.16.38,2.43.38,3.81h-11.43c0,1.12.06,2.11.19,2.94.13.84.37,1.67.73,2.5s.93,1.48,1.72,1.93c.78.45,1.75.7,2.91.73,1.16.04,2.29-.31,3.37-1.03s1.87-1.78,2.34-3.16h.27ZM133.09,42.62v-1.52c0-.62,0-1.11.03-1.47.02-.36.02-.81,0-1.33-.02-.53-.05-.95-.08-1.28s-.08-.68-.14-1.06-.14-.69-.24-.93c-.11-.24-.25-.46-.41-.68s-.36-.37-.6-.46-.5-.14-.79-.14c-1.09,0-1.82.78-2.18,2.34-.36,1.56-.54,3.74-.54,6.53,0,0,4.95,0,4.95,0Z"/>
    <path d="M157.42,57.1h-6.85c-3.41,0-5.12-1.96-5.12-5.88v-15.35h-2.78l9.53-8.71v6.1h4.63l-1.91,2.61h-2.72l-.05,16.06c0,1.63-1.16,0,0,0"/>
    <path d="M162.31,53.72v-15.46c0-2.14,1.89,0,0,0l.19-5.46,5.96.05h.33v19.12c0,1.74-1.56,0,0,0l5.28,4.64h-11.78"/>
    <circle cx="165.87" cy="27.21" r="3.37"/>
  </g>
  <g id="whale">
    <path d="M63.76,24.84c-.17,0-.33,0-.5.01v.21c.17,0,.33-.01.5-.01,6.92,0,13.12,3.12,17.28,8.03h.27c-4.2-5.03-10.51-8.23-17.55-8.23h0Z"/>
    <path d="M63.76,26.32c11.81,0,21.39,9.58,21.39,21.39s-9.58,21.39-21.39,21.39-21.39-9.58-21.39-21.39,9.58-21.39,21.39-21.39M63.76,25.49c-12.25,0-22.21,9.97-22.21,22.21s9.97,22.21,22.21,22.21,22.21-9.97,22.21-22.21-9.97-22.21-22.21-22.21h0Z"/>
    <path d="M63.76,67.84c-11.1,0-20.14-9.03-20.14-20.14s9.03-20.14,20.14-20.14,20.14,9.03,20.14,20.14-9.03,20.14-20.14,20.14ZM63.76,27.78c-10.99,0-19.93,8.94-19.93,19.93s8.94,19.93,19.93,19.93,19.93-8.94,19.93-19.93-8.94-19.93-19.93-19.93Z"/>
    <path d="M92.4,35.03c-1.08-6.28-4.24-8.21-4.24-8.21,0,0-.58-.39-1.68-.62-1.71-.37-8.37,4.85-8.37,4.85,0,0-9.57,4.94-14.51,6.73-4.94,1.79-9.44,1.44-11.01,1.42s-1.67-.65-2.41-.62c-.74.04-1.92.94-1.92.94l-11.45-.99s1.07-1.83,1.66-3.29-.32-1.77-.32-1.77c-1.22,2.07-3.09,1.47-5.24,1.97-3.28.78-3.62,2.46-3.62,2.46,0,0-5.55,1.53-6.86,2.81-1.31,1.28-3.62,2.25-4.48,2.89.95.58,5.98-.32,7.89-.79,1.91-.48,5.45-.58,6.99-.79,4.82,1.91,8.37,4.82,10.38,6.67,5.35,7.25,12.88,6.25,14.1,6.33-.37.71-4.75,4.74-4.96,4.99s-.38.78.24,1.21c.97.24,4.21-.65,6.85-2.18,4.8-2.4,8.03-5.5,8.41-5.72s1.32-.35,2.26-.51c.11.97-.7,2.37-.94,3.02-.24.65-.51,1.43-.16,1.62,4.34.08,6.74-5.88,6.9-6.34,0,0,12.86-3.3,12.14-5.15-6.31,1.99-10.6,3.14-10.6,3.14l-.58-.25c14.45-5.16,14.54-8.08,14.78-8.43s1.21-2.02.73-5.37h0l.02-.02ZM73.62,46.5c-.44.08-.78-.31-1.06-.51.24-.23.38-.76.83-.84.44-.08.71.27,1.13.5-.26.41-.45.77-.9.85Z"/>
    <path d="M63.28,70.56v-.21c-11.24-.24-20.49-8.69-21.97-19.58h-.21c1.48,11.01,10.83,19.55,22.18,19.79Z"/>
    <path d="M45.03,39.14c1.19-2.6,2.92-4.96,5.12-6.9l-.3-.19c-2.19,1.94-3.91,4.3-5.11,6.9l.29.18h0Z"/>
    <path d="M55.67,28.7c3.22-1.23,5.47-1.74,9.3-1.63l.02-.34c-3.51-.19-6.73.48-9.48,1.67l.16.3h0Z"/>
    <path d="M82.54,56.06c-1.21,2.66-2.96,5.02-5.12,6.93l.29.19c2.15-1.92,3.9-4.28,5.11-6.94l-.29-.19h.01Z"/>
    <path d="M45.56,38.08l-.3-.16c-.05.1-.1.2-.16.3l.3.15c.05-.1.1-.2.15-.3h0Z"/>
    <path d="M70.09,27.67c-.11-.03-.22-.07-.32-.1l-.1.32c.11.03.21.06.32.1l.1-.32Z"/>
    <path d="M48.04,34.39c.07-.09.14-.17.22-.25l-.26-.22c-.07.09-.15.17-.22.26l.26.22h0Z"/>
    <path d="M69.52,67.72c.11-.03.22-.06.33-.1l-.1-.32c-.11.03-.21.06-.32.09l.09.33Z"/>
    <path d="M51.51,31.11c.09-.07.18-.13.27-.2l-.2-.27c-.09.07-.18.13-.27.2l.2.27Z"/>
    <path d="M65.3,27.09l.02-.34c-.11,0-.23-.02-.34-.02l-.02.34c.11,0,.22.01.33.02h0Z"/>
    <path d="M60.2,27.35c.11-.02.22-.04.33-.06l-.05-.33c-.11.02-.22.04-.33.06l.06.33h-.01Z"/>
    <path d="M74.13,65.39c-.1.06-.19.11-.29.17l.16.29c.1-.06.2-.11.29-.17l-.17-.29h0Z"/>
    <path d="M55.63,28.72c.1-.04.2-.09.31-.13l-.13-.31c-.1.04-.21.09-.31.13l.13.31Z"/>
    <path d="M80.82,59.15l.28.19c.06-.09.13-.19.19-.28l-.28-.19c-.06.09-.12.19-.19.28Z"/>
    <path d="M78.13,32.86l.24-.24c-.08-.08-.16-.16-.25-.23l-.23.25c.08.08.16.15.24.23h0Z"/>
    <path d="M78.18,62.78l-.23-.25c-.08.08-.16.15-.24.23l.23.25c.08-.08.17-.15.25-.23h-.01Z"/>
    <path d="M81.24,36.09l-.28.19c.06.09.12.19.18.28l.28-.18c-.06-.1-.12-.19-.18-.28h0Z"/>
    <path d="M83.43,40.42l-.32.12c.04.1.08.21.11.31l.32-.11c-.04-.11-.08-.21-.11-.32h0Z"/>
    <path d="M84.56,45.14l-.34.04c.01.11.03.22.04.33l.34-.03c-.01-.11-.02-.22-.04-.34Z"/>
    <path d="M74.05,29.78c.1.06.19.11.29.17l.17-.29c-.1-.06-.19-.12-.29-.17l-.17.29Z"/>
  </g>
</svg>